<svg width="28" height="21" viewBox="0 0 28 21" fill="none" xmlns="http://www.w3.org/2000/svg">
<path d="M23.1818 2.19291C21.4741 1.40934 19.6428 0.832033 17.7281 0.501387C17.6932 0.495006 17.6584 0.510953 17.6404 0.542849C17.4049 0.961736 17.144 1.50821 16.9613 1.93773C14.9019 1.62942 12.8531 1.62942 10.8359 1.93773C10.6532 1.49866 10.3829 0.961736 10.1463 0.542849C10.1283 0.512017 10.0935 0.49607 10.0586 0.501387C8.14496 0.830977 6.31369 1.40828 4.60491 2.19291C4.59011 2.19929 4.57743 2.20993 4.56902 2.22375C1.09548 7.41315 0.143926 12.475 0.610724 17.4741C0.612836 17.4985 0.626565 17.5219 0.645576 17.5368C2.93732 19.2198 5.15727 20.2415 7.33599 20.9188C7.37086 20.9294 7.4078 20.9167 7.42999 20.8879C7.94537 20.1841 8.40478 19.442 8.79868 18.6616C8.82193 18.6159 8.79974 18.5617 8.75223 18.5436C8.02352 18.2672 7.32965 17.9302 6.66219 17.5474C6.6094 17.5166 6.60517 17.4411 6.65374 17.4049C6.7942 17.2997 6.93469 17.1902 7.06881 17.0796C7.09307 17.0594 7.12689 17.0552 7.15542 17.0679C11.5403 19.0699 16.2875 19.0699 20.6207 17.0679C20.6492 17.0541 20.683 17.0584 20.7084 17.0786C20.8425 17.1891 20.983 17.2997 21.1245 17.4049C21.1731 17.4411 21.1699 17.5166 21.1171 17.5474C20.4496 17.9376 19.7558 18.2672 19.026 18.5426C18.9785 18.5607 18.9574 18.6159 18.9806 18.6616C19.383 19.441 19.8424 20.1831 20.3482 20.8869C20.3694 20.9167 20.4074 20.9294 20.4422 20.9188C22.6315 20.2415 24.8515 19.2198 27.1432 17.5368C27.1633 17.5219 27.176 17.4996 27.1781 17.4751C27.7367 11.6956 26.2423 6.67531 23.2166 2.2248C23.2092 2.20993 23.1966 2.19929 23.1818 2.19291ZM9.4535 14.4302C8.13334 14.4302 7.04556 13.2182 7.04556 11.7297C7.04556 10.2412 8.11224 9.0292 9.4535 9.0292C10.8053 9.0292 11.8825 10.2519 11.8614 11.7297C11.8614 13.2182 10.7947 14.4302 9.4535 14.4302ZM18.3564 14.4302C17.0363 14.4302 15.9485 13.2182 15.9485 11.7297C15.9485 10.2412 17.0152 9.0292 18.3564 9.0292C19.7083 9.0292 20.7855 10.2519 20.7644 11.7297C20.7644 13.2182 19.7083 14.4302 18.3564 14.4302Z" fill="#525269"/>
</svg>
