<svg width="37" height="36" viewBox="0 0 37 36" fill="none" xmlns="http://www.w3.org/2000/svg">
<path d="M9.5 30C7.85 30 6.4375 29.4125 5.2625 28.2375C4.0875 27.0625 3.5 25.65 3.5 24V12C3.5 10.35 4.0875 8.9375 5.2625 7.7625C6.4375 6.5875 7.85 6 9.5 6H27.5C29.15 6 30.5625 6.5875 31.7375 7.7625C32.9125 8.9375 33.5 10.35 33.5 12V24C33.5 25.65 32.9125 27.0625 31.7375 28.2375C30.5625 29.4125 29.15 30 27.5 30H9.5ZM9.5 12H27.5C28.05 12 28.575 12.0625 29.075 12.1875C29.575 12.3125 30.05 12.5125 30.5 12.7875V12C30.5 11.175 30.2065 10.469 29.6195 9.882C29.0325 9.295 28.326 9.001 27.5 9H9.5C8.675 9 7.969 9.294 7.382 9.882C6.795 10.47 6.501 11.176 6.5 12V12.7875C6.95 12.5125 7.425 12.3125 7.925 12.1875C8.425 12.0625 8.95 12 9.5 12ZM6.725 16.875L23.4125 20.925C23.6375 20.975 23.8625 20.975 24.0875 20.925C24.3125 20.875 24.525 20.775 24.725 20.625L29.9375 16.275C29.6625 15.9 29.3125 15.594 28.8875 15.357C28.4625 15.12 28 15.001 27.5 15H9.5C8.85 15 8.2815 15.169 7.7945 15.507C7.3075 15.845 6.951 16.301 6.725 16.875Z" fill="#6C6C89"/>
</svg>
