<svg width="26" height="22" viewBox="0 0 26 22" fill="none" xmlns="http://www.w3.org/2000/svg">
<path d="M17.4785 0.584918C17.1016 0.395259 16.791 0.587288 16.791 1.00928V17.8154L23.6875 21.2625C24.4461 21.6418 25.0625 21.3763 25.0625 20.6698V4.48715C25.0625 4.4184 25.0246 4.35676 24.963 4.32594L17.4785 0.584918Z" fill="#525269"/>
<path d="M8.51953 13.6787L16.388 0.895727C16.6085 0.535374 17.0992 0.395501 17.4786 0.58516L24.9725 4.33093C25.0199 4.35463 25.0388 4.41627 25.0104 4.46132L16.791 17.8157L8.51953 13.6787Z" fill="#525269"/>
<path d="M1.39596 0.812667C0.765347 0.497359 0.551981 0.729691 0.921816 1.32949L8.52003 13.6787L16.7892 17.8132L8.539 4.40434C8.52714 4.38537 8.51055 4.37115 8.49158 4.35929L1.39596 0.812667Z" fill="#525269"/>
<path d="M8.51914 20.6702C8.51914 21.3743 8.00468 21.692 7.37407 21.379L0.937514 18.1596C0.558196 17.9699 0.25 17.4697 0.25 17.0477V1.26568C0.25 0.701449 0.662508 0.44778 1.1651 0.699079L8.47646 4.35239C8.50254 4.36661 8.52151 4.39269 8.52151 4.42351V20.6702H8.51914Z" fill="#525269"/>
</svg>
