<svg width="28" height="20" viewBox="0 0 28 20" fill="none" xmlns="http://www.w3.org/2000/svg">
<path d="M27.2634 2.80837C26.2787 3.1999 25.2204 3.46452 24.1097 3.58353C25.2434 2.97425 26.114 2.00951 26.524 0.860022C25.4631 1.4241 24.288 1.8338 23.0373 2.05463C22.0356 1.09787 20.6086 0.5 19.0294 0.5C15.9969 0.5 13.5384 2.7041 13.5384 5.4227C13.5384 5.80853 13.587 6.18426 13.6806 6.54455C9.11716 6.33926 5.07128 4.37941 2.36313 1.40111C1.89049 2.12817 1.61972 2.97381 1.61972 3.87598C1.61972 5.58384 2.58917 7.09064 4.06248 7.9734C3.16234 7.94786 2.31575 7.72642 1.57537 7.35771C1.57498 7.37825 1.57498 7.39887 1.57498 7.41959C1.57498 9.80476 3.46767 11.7944 5.97955 12.2466C5.51876 12.3591 5.03369 12.4193 4.53286 12.4193C4.17907 12.4193 3.83507 12.3885 3.49988 12.331C4.19855 14.2868 6.22634 15.71 8.62906 15.7498C6.74988 17.0701 4.3823 17.8571 1.80983 17.8571C1.36666 17.8571 0.929561 17.8338 0.5 17.7883C2.92994 19.1851 5.81616 20 8.91697 20C19.0165 20 24.5394 12.4988 24.5394 5.99354C24.5394 5.78009 24.5341 5.56778 24.5235 5.3567C25.5962 4.66264 26.5272 3.79558 27.2634 2.80837Z" fill="#525269"/>
</svg>
